<?xml version="1.0" encoding="UTF-8"?>
<svg width="210" height="48" viewBox="0 0 210 48" fill="none" xmlns="http://www.w3.org/2000/svg">
    <title>logo-black-1</title>
<g clip-path="url(#clip0_613_2)">
<path fill-rule="evenodd" clip-rule="evenodd" d="M45.8775 33.406L47.6896 30.1719H48.2695L46.0949 33.868V36.0004H45.6056V33.8503L43.4492 30.1719H44.011L45.8775 33.406ZM55.1386 33.5595C55.153 34.1991 54.9277 34.8222 54.5043 35.3135C54.0611 35.7528 53.4535 36.0004 52.8191 36.0004C52.1847 36.0004 51.5771 35.7528 51.1338 35.3135C50.717 34.8197 50.4982 34.1969 50.5177 33.5595V32.6124C50.4998 31.9752 50.7184 31.353 51.1338 30.8584C51.5559 30.4006 52.1675 30.1496 52.8009 30.1743C53.4459 30.144 54.071 30.395 54.5043 30.8584C54.9248 31.3513 55.1497 31.9733 55.1386 32.6124V33.5595ZM54.6493 32.6124C54.6773 32.0692 54.5038 31.5342 54.16 31.1039C53.8238 30.7199 53.3201 30.5118 52.8009 30.5427C52.2927 30.5147 51.8012 30.7232 51.4781 31.1039C51.149 31.5406 50.9829 32.0724 51.0069 32.6124V33.5595C50.9829 34.0995 51.149 34.6313 51.4781 35.0679C51.805 35.4557 52.3025 35.6705 52.8191 35.6468C53.3367 35.6763 53.8368 35.4604 54.16 35.0679C54.5067 34.6392 54.6806 34.1031 54.6493 33.5595V32.6124ZM62.2259 30.1719V33.9863C62.2493 34.5442 62.0252 35.0852 61.6098 35.4736C61.1855 35.8336 60.6338 36.0217 60.0695 35.9985C59.5074 36.0217 58.9591 35.8263 58.5473 35.4561C58.1354 35.0739 57.9169 34.5371 57.9493 33.9863V30.1719H58.4386V33.9863C58.418 34.4237 58.589 34.8492 58.9097 35.1587C59.2141 35.4575 59.636 35.6166 60.0695 35.5961C60.5193 35.6219 60.959 35.4606 61.2776 35.1529C61.5963 34.8453 61.7633 34.4207 61.7366 33.9863V30.1719H62.2259ZM65.9195 33.3722V36.0004H65.3758V30.1758H67.3511C67.8733 30.1458 68.3906 30.2897 68.8189 30.5842C69.1755 30.884 69.3641 31.3329 69.3263 31.7918C69.3302 32.086 69.2346 32.3732 69.0544 32.6086C68.8626 32.8626 68.5975 33.0543 68.2934 33.1591C68.6098 33.2185 68.8934 33.389 69.0907 33.6386C69.2591 33.9044 69.3413 34.214 69.3263 34.5265V35.0593C69.296 35.2237 69.296 35.3921 69.3263 35.5565C69.3578 35.6948 69.4341 35.8193 69.5437 35.9117H69.0363C69.0055 35.814 68.9932 35.7117 69.0001 35.6098C68.9813 35.4267 68.9813 35.2423 69.0001 35.0593V34.5265C69.0101 34.2045 68.8781 33.8939 68.6377 33.6741C68.3591 33.4614 68.0117 33.3542 67.6591 33.3722H65.9195ZM65.9195 32.9638H67.3511C67.7696 32.9941 68.1859 32.8812 68.5289 32.6442C68.7808 32.4248 68.9147 32.1034 68.8913 31.774C68.9149 31.4394 68.7814 31.1125 68.5289 30.8861C68.1985 30.667 67.8036 30.5609 67.4054 30.5842H65.9195V32.9638ZM79.5881 34.5469C79.5855 34.2706 79.4524 34.0103 79.2257 33.8383C78.8539 33.5874 78.4359 33.4056 77.9935 33.3025C77.4756 33.1782 76.9848 32.9675 76.5438 32.6802C76.2202 32.4337 76.0387 32.0552 76.0545 31.6605C76.0439 31.2366 76.2543 30.8352 76.6163 30.5889C77.0228 30.2987 77.5224 30.1521 78.0297 30.1741C78.5572 30.1504 79.0748 30.317 79.4794 30.6408C79.8482 30.9414 80.0491 31.3886 80.023 31.8506H79.5519C79.563 31.4963 79.4107 31.1551 79.1351 30.9173C78.8272 30.6687 78.4328 30.5392 78.0297 30.5543C77.6399 30.5305 77.2541 30.6409 76.9424 30.8654C76.6863 31.0486 76.538 31.3379 76.5438 31.6432C76.5464 31.9195 76.6795 32.1799 76.9062 32.3519C77.2821 32.6033 77.7074 32.7797 78.1566 32.8704C78.6785 32.9924 79.1708 33.2096 79.6063 33.5099C79.9252 33.7598 80.1057 34.136 80.0955 34.5296C80.0988 34.956 79.882 35.3567 79.5157 35.6012C79.0828 35.8785 78.5689 36.0177 78.0478 35.9987C77.5052 36.0126 76.972 35.8612 76.5257 35.5666C76.0902 35.2948 75.8465 34.8168 75.8914 34.3222H76.3444C76.3264 34.7158 76.5258 35.0896 76.87 35.3074C77.2233 35.5164 77.6321 35.6243 78.0478 35.6185C78.446 35.6412 78.841 35.5379 79.1713 35.3247C79.4393 35.1493 79.5961 34.8567 79.5881 34.5469ZM87.2331 30.1719V33.9864C87.2636 34.542 87.0459 35.0835 86.6351 35.4737C86.2025 35.8317 85.6461 36.0191 85.0767 35.9986C84.5146 36.0218 83.9663 35.8264 83.5545 35.4562C83.1426 35.074 82.9242 34.5371 82.9565 33.9864V30.1719H83.5183V33.9864C83.4906 34.4214 83.6553 34.8475 83.9713 35.1587C84.2756 35.4575 84.6976 35.6167 85.1311 35.5962C85.5809 35.6219 86.0206 35.4606 86.3392 35.153C86.6579 34.8453 86.8249 34.4207 86.7982 33.9864V30.1719H87.2331ZM94.3535 34.1504C94.3772 34.6551 94.1723 35.1448 93.7917 35.4928C93.3555 35.8417 92.8 36.022 92.2333 35.9984C91.6172 36.0206 91.0263 35.7622 90.6386 35.3011C90.2174 34.8126 89.998 34.1919 90.0225 33.5577V32.6163C89.998 31.982 90.2174 31.3614 90.6386 30.8729C91.0263 30.4118 91.6172 30.1534 92.2333 30.1756C92.7981 30.1437 93.3546 30.3181 93.7917 30.6637C94.193 31.0053 94.4015 31.5101 94.3535 32.0235H93.9004C93.9231 31.6165 93.7572 31.2207 93.4474 30.9427C93.1107 30.6664 92.6746 30.5287 92.2333 30.5591C91.7453 30.5495 91.2814 30.7629 90.9829 31.1344C90.6589 31.5708 90.4933 32.0977 90.5118 32.6337V33.5751C90.4906 34.1115 90.6564 34.6392 90.9829 35.0744C91.2814 35.4459 91.7453 35.6594 92.2333 35.6497C92.6707 35.6729 93.102 35.5428 93.4474 35.2836C93.7623 35.0016 93.9286 34.5983 93.9004 34.1853L94.3535 34.1504ZM101.421 34.1504C101.444 34.6551 101.24 35.1448 100.859 35.4928C100.423 35.8417 99.8673 36.022 99.3005 35.9984C98.6845 36.0206 98.0936 35.7622 97.7059 35.3011C97.2846 34.8126 97.0653 34.1919 97.0898 33.5577V32.6163C97.0653 31.982 97.2846 31.3614 97.7059 30.8729C98.0936 30.4118 98.6845 30.1534 99.3005 30.1756C99.8654 30.1437 100.422 30.3181 100.859 30.6637C101.26 31.0053 101.469 31.5101 101.421 32.0235H100.968C100.99 31.6165 100.824 31.2207 100.515 30.9427C100.178 30.6664 99.7419 30.5287 99.3005 30.5591C98.8125 30.5495 98.3487 30.7629 98.0502 31.1344C97.7262 31.5708 97.5606 32.0977 97.579 32.6337V33.5751C97.5578 34.1115 97.7237 34.6392 98.0502 35.0744C98.3487 35.4459 98.8125 35.6594 99.3005 35.6497C99.7379 35.6729 100.169 35.5428 100.515 35.2836C100.83 35.0016 100.996 34.5983 100.968 34.1853L101.421 34.1504ZM107.544 33.175H104.862V35.6095H107.961V36.0004H104.336V30.1719H107.961V30.5806H104.88V32.7663H107.562L107.544 33.175ZM114.017 34.5473C114.014 34.2711 113.881 34.0107 113.654 33.8387C113.291 33.5857 112.878 33.4036 112.44 33.3029C111.921 33.1822 111.43 32.9713 110.991 32.6807C110.663 32.4359 110.475 32.0581 110.483 31.661C110.482 31.239 110.69 30.8415 111.045 30.5894C111.453 30.3017 111.951 30.1554 112.458 30.1746C112.992 30.1482 113.516 30.3149 113.926 30.6412C114.282 30.9507 114.48 31.3918 114.47 31.8511H113.999C114.003 31.4945 113.844 31.1538 113.564 30.9178C113.258 30.6661 112.862 30.5362 112.458 30.5548C112.069 30.5355 111.685 30.6454 111.371 30.8659C111.122 31.0543 110.975 31.3402 110.972 31.6437C110.975 31.9199 111.108 32.1803 111.335 32.3523C111.719 32.601 112.15 32.7771 112.603 32.8708C113.12 32.9924 113.606 33.2097 114.035 33.5103C114.36 33.7757 114.54 34.1689 114.523 34.577C114.505 34.9851 114.292 35.3628 113.944 35.6016C113.517 35.8765 113.01 36.0156 112.495 35.9991C111.946 36.0131 111.407 35.8619 110.954 35.5671C110.525 35.2902 110.283 34.8158 110.32 34.3226H110.791C110.766 34.7135 110.959 35.0882 111.299 35.3078C111.658 35.5173 112.073 35.6252 112.495 35.6189C112.887 35.6378 113.275 35.5346 113.6 35.3251C113.868 35.1498 114.025 34.8571 114.017 34.5473ZM120.741 34.5469C120.739 34.2706 120.606 34.0103 120.379 33.8383C120.002 33.5854 119.577 33.4036 119.129 33.3025C118.611 33.1782 118.12 32.9675 117.679 32.6802C117.355 32.4337 117.174 32.0552 117.19 31.6605C117.179 31.2366 117.389 30.8352 117.751 30.5889C118.158 30.2987 118.657 30.1521 119.165 30.1741C119.692 30.1504 120.21 30.317 120.614 30.6408C120.983 30.9414 121.184 31.3886 121.158 31.8506H120.687C120.689 31.498 120.538 31.1603 120.27 30.9173C119.962 30.6687 119.568 30.5392 119.165 30.5543C118.775 30.5305 118.389 30.6409 118.078 30.8654C117.821 31.0486 117.673 31.3379 117.679 31.6432C117.681 31.9195 117.815 32.1799 118.041 32.3519C118.417 32.6033 118.842 32.7797 119.292 32.8704C119.814 32.9924 120.306 33.2096 120.741 33.5099C121.06 33.7598 121.241 34.136 121.231 34.5296C121.234 34.956 121.017 35.3567 120.651 35.6012C120.218 35.8785 119.704 36.0177 119.183 35.9987C118.64 36.0126 118.107 35.8612 117.661 35.5666C117.225 35.2948 116.982 34.8168 117.026 34.3222H117.48C117.461 34.7158 117.661 35.0896 118.005 35.3074C118.358 35.5164 118.767 35.6243 119.183 35.6185C119.581 35.6412 119.976 35.5379 120.306 35.3247C120.581 35.1534 120.745 34.86 120.741 34.5469ZM128.682 36.0004H128.193V30.1719H128.682V36.0004ZM135.419 34.5469C135.417 34.2706 135.284 34.0103 135.057 33.8383C134.68 33.5854 134.255 33.4036 133.807 33.3025C133.289 33.1782 132.798 32.9675 132.357 32.6802C132.033 32.4337 131.852 32.0552 131.868 31.6605C131.857 31.2366 132.068 30.8352 132.429 30.5889C132.836 30.2987 133.336 30.1521 133.843 30.1741C134.37 30.1504 134.888 30.317 135.293 30.6408C135.661 30.9414 135.862 31.3886 135.836 31.8506H135.365C135.376 31.4963 135.224 31.1551 134.948 30.9173C134.64 30.6687 134.246 30.5392 133.843 30.5543C133.453 30.5305 133.067 30.6409 132.756 30.8654C132.5 31.0486 132.351 31.3379 132.357 31.6432C132.36 31.9195 132.493 32.1799 132.719 32.3519C133.095 32.6033 133.521 32.7797 133.97 32.8704C134.492 32.9924 134.984 33.2096 135.419 33.5099C135.738 33.7598 135.919 34.136 135.909 34.5296C135.912 34.956 135.695 35.3567 135.329 35.6012C134.896 35.8785 134.382 36.0177 133.861 35.9987C133.318 36.0126 132.785 35.8612 132.339 35.5666C131.903 35.2948 131.66 34.8168 131.705 34.3222H132.158C132.14 34.7158 132.339 35.0896 132.683 35.3074C133.037 35.5164 133.445 35.6243 133.861 35.6185C134.259 35.6412 134.654 35.5379 134.985 35.3247C135.259 35.1534 135.423 34.86 135.419 34.5469ZM147.013 33.5598C147.027 34.1996 146.802 34.8227 146.379 35.3142C145.944 35.7756 145.32 36.0262 144.675 35.9983C144.042 36.023 143.43 35.772 143.008 35.3142C142.591 34.8203 142.373 34.1973 142.392 33.5598V32.6125C142.374 31.9752 142.593 31.3528 143.008 30.8582C143.43 30.4003 144.042 30.1493 144.675 30.174C145.32 30.1461 145.944 30.3968 146.379 30.8582C146.799 31.3512 147.024 31.9733 147.013 32.6125V33.5598ZM146.524 32.6125C146.552 32.0692 146.378 31.5341 146.034 31.1038C145.698 30.7196 145.194 30.5115 144.675 30.5424C144.167 30.5115 143.674 30.7206 143.352 31.1038C143.023 31.5405 142.857 32.0724 142.881 32.6125V33.5598C142.857 34.0999 143.023 34.6318 143.352 35.0686C143.674 35.4536 144.165 35.6684 144.675 35.6475C145.197 35.6713 145.7 35.457 146.034 35.0686C146.381 34.6397 146.555 34.1035 146.524 33.5598V32.6125ZM154.082 30.1719V33.9857C154.113 34.5412 153.895 35.0826 153.484 35.4727C153.06 35.8327 152.508 36.0207 151.944 35.9976C151.381 36.0269 150.83 35.8307 150.422 35.4552C150.01 35.0731 149.791 34.5363 149.824 33.9857V30.1719H150.313V33.9857C150.285 34.4207 150.45 34.8466 150.766 35.1578C151.078 35.4556 151.505 35.6141 151.944 35.5952C152.387 35.6107 152.818 35.453 153.14 35.1578C153.456 34.8466 153.621 34.4207 153.593 33.9857V30.1719H154.082ZM157.739 33.3722V36.0004H157.25V30.1758H159.244C159.766 30.1458 160.283 30.2897 160.711 30.5842C161.068 30.884 161.257 31.3329 161.219 31.7918C161.223 32.086 161.127 32.3732 160.947 32.6086C160.752 32.8671 160.48 33.0595 160.168 33.1591C160.486 33.2136 160.771 33.3851 160.965 33.6386C161.14 33.9024 161.228 34.2121 161.219 34.5265V35.0593C161.198 35.2244 161.198 35.3914 161.219 35.5565C161.265 35.6885 161.339 35.8095 161.436 35.9117H160.947C160.834 35.8076 160.757 35.6707 160.729 35.521C160.711 35.3379 160.711 35.1535 160.729 34.9705V34.4377C160.74 34.1157 160.607 33.8051 160.367 33.5853C160.089 33.3726 159.741 33.2655 159.389 33.2834L157.739 33.3722ZM157.739 32.9638H159.189C159.608 32.9941 160.024 32.8812 160.367 32.6442C160.612 32.4203 160.745 32.1021 160.729 31.774C160.745 31.4406 160.613 31.1168 160.367 30.8861C160.037 30.667 159.642 30.5609 159.244 30.5842H157.739V32.9638ZM170.932 35.2455L173.161 30.1719H173.759V35.9302H173.269V31.155L171.131 36.0004H170.805L168.612 31.0321V36.0004H168.123V30.1719H168.775L170.932 35.2455ZM177.609 36.0004H177.12V30.1719H177.609V36.0004ZM184.345 34.5476C184.342 34.2714 184.209 34.011 183.983 33.839C183.613 33.5839 183.194 33.4017 182.75 33.3031C182.231 33.1824 181.74 32.9715 181.301 32.6809C180.973 32.4361 180.785 32.0582 180.793 31.6611C180.792 31.2391 181 30.8415 181.355 30.5894C181.764 30.3042 182.262 30.1581 182.769 30.1746C183.302 30.1482 183.826 30.3149 184.236 30.6413C184.592 30.9508 184.791 31.3919 184.78 31.8512H184.309C184.313 31.4946 184.154 31.1539 183.874 30.9178C183.568 30.6662 183.172 30.5362 182.769 30.5549C182.379 30.5355 181.995 30.6455 181.681 30.866C181.432 31.0543 181.285 31.3403 181.283 31.6438C181.285 31.9201 181.418 32.1805 181.645 32.3525C182.029 32.6012 182.46 32.7773 182.914 32.871C183.43 32.9926 183.916 33.2099 184.345 33.5106C184.664 33.7605 184.845 34.1367 184.834 34.5304C184.845 34.9543 184.635 35.3557 184.273 35.602C183.837 35.874 183.325 36.0127 182.805 35.9996C182.256 36.0135 181.718 35.8623 181.264 35.5674C180.835 35.2906 180.593 34.8161 180.63 34.3229H181.101C181.076 34.7139 181.269 35.0886 181.609 35.3082C181.97 35.5151 182.384 35.6228 182.805 35.6193C183.197 35.6382 183.585 35.535 183.91 35.3255C184.185 35.1541 184.349 34.8608 184.345 34.5476ZM191.051 34.5919C191.049 34.3143 190.916 34.0526 190.689 33.8797C190.312 33.6255 189.887 33.4427 189.439 33.3411C188.921 33.2162 188.43 33.0045 187.989 32.7157C187.665 32.4678 187.484 32.0874 187.5 31.6907C187.489 31.2646 187.7 30.8612 188.061 30.6136C188.924 30.0246 190.081 30.0246 190.943 30.6136C191.3 30.9222 191.493 31.3691 191.468 31.8297H190.997C191.008 31.4735 190.856 31.1306 190.58 30.8916C190.272 30.6417 189.878 30.5115 189.475 30.5267C189.085 30.5028 188.699 30.6137 188.388 30.8394C188.132 31.0235 187.983 31.3144 187.989 31.6212C187.992 31.8989 188.125 32.1606 188.351 32.3335C188.727 32.5862 189.153 32.7635 189.602 32.8547C190.124 32.9773 190.616 33.1956 191.051 33.4975C191.37 33.7487 191.551 34.1268 191.541 34.5225C191.544 34.9511 191.327 35.3538 190.961 35.5996C190.534 35.8758 190.026 36.0157 189.511 35.9991C188.963 36.0156 188.423 35.8634 187.971 35.5648C187.535 35.2916 187.292 34.8111 187.337 34.314H187.79C187.772 34.7096 187.971 35.0853 188.315 35.3042C188.674 35.5166 189.089 35.6252 189.511 35.6169C189.903 35.6359 190.291 35.5322 190.617 35.3216C190.876 35.1597 191.037 34.8881 191.051 34.5919ZM195.006 36.0004H194.516V30.1719H195.006V36.0004ZM202.644 33.56C202.664 34.1975 202.445 34.8205 202.028 35.3144C201.592 35.7739 200.969 36.0241 200.325 35.9987C199.691 36.0234 199.08 35.7724 198.658 35.3144C198.234 34.823 198.009 34.1998 198.024 33.56V32.6126C198.012 31.9733 198.237 31.3511 198.658 30.8581C199.078 30.3981 199.691 30.1467 200.325 30.1739C200.969 30.1484 201.592 30.3987 202.028 30.8581C202.444 31.3528 202.662 31.9753 202.644 32.6126V33.56ZM202.173 32.6126C202.201 32.0692 202.028 31.5341 201.684 31.1037C201.348 30.7196 200.844 30.5115 200.325 30.5423C199.816 30.5114 199.323 30.7205 199.002 31.1037C198.665 31.5365 198.498 32.0714 198.531 32.6126V33.56C198.498 34.1012 198.665 34.6361 199.002 35.0688C199.321 35.4562 199.814 35.6716 200.325 35.6478C200.847 35.6716 201.35 35.4573 201.684 35.0688C202.031 34.6399 202.205 34.1037 202.173 33.56V32.6126ZM210.001 36.0004H209.512L206.123 31.0071V36.0004H205.634V30.1719H206.123L209.512 35.1475V30.1719H210.001V36.0004Z" fill="black"/>
<path fill-rule="evenodd" clip-rule="evenodd" d="M49.6459 19.6373C49.098 19.2442 48.473 18.9646 47.8096 18.8158C46.7125 18.5669 45.6806 18.0986 44.7797 17.4407C44.0935 16.9105 43.7054 16.096 43.7331 15.244C43.7171 14.3353 44.1466 13.4733 44.8899 12.9224C45.7355 12.2918 46.7816 11.9695 47.8463 12.0116C48.9791 11.952 50.0935 12.309 50.968 13.0117C51.7108 13.6376 52.1226 14.5567 52.0881 15.5119H50.2518C50.2901 14.9558 50.0592 14.4142 49.6275 14.0475C49.151 13.6735 48.5498 13.4829 47.9381 13.5118C47.3767 13.4736 46.8207 13.639 46.3773 13.9761C46.0259 14.2782 45.8308 14.7167 45.8448 15.1726C45.8415 15.6132 46.0612 16.0272 46.4324 16.2798C47.0466 16.6625 47.7235 16.9403 48.4339 17.1013C49.4872 17.3523 50.4672 17.835 51.2985 18.5122C51.9076 19.1254 52.2096 19.9674 52.1248 20.8159C52.1595 21.7286 51.7261 22.5985 50.968 23.1376C50.0634 23.7431 48.98 24.0441 47.883 23.9948C46.7744 24.007 45.6263 23.7594 44.7165 23.1432C43.8172 22.5426 43.4492 21.4729 43.4492 20.3873H43.4576H45.2939C45.2383 21.0052 45.5164 21.607 46.0284 21.9768C46.5629 22.3475 47.2086 22.5359 47.8647 22.5125C48.4519 22.5521 49.0352 22.3945 49.5173 22.066C49.9536 21.8045 50.2074 21.3314 50.1784 20.8338C50.195 20.3774 49.9994 19.9379 49.6459 19.6373ZM60.0991 21.2067H55.8566L54.92 24H52.863L57.0504 12H58.887L63.0009 24H61.0174L60.0991 21.2067ZM56.426 19.5345H59.5665L58.0422 14.7933L56.426 19.5345ZM66.4406 24H64.4492V12H66.4406V24ZM77.6647 22.2177C77.239 22.7344 76.6935 23.1485 76.0716 23.4272C75.1925 23.826 74.228 24.021 73.2559 23.9963C71.9375 24.0473 70.6562 23.5707 69.7178 22.6802C68.735 21.764 68.2032 20.4906 68.2543 19.1764V16.7398C68.2325 15.4638 68.7466 14.233 69.6807 13.325C70.5773 12.44 71.8228 11.9616 73.1077 12.0089C74.3004 11.9375 75.4774 12.2994 76.4051 13.0226C77.1864 13.7008 77.6082 14.6806 77.5536 15.6905H75.6641C75.6922 15.107 75.4637 14.5391 75.0343 14.1253C73.8754 13.2112 72.1701 13.345 71.1812 14.4277C70.644 15.0714 70.3676 15.8801 70.4032 16.7042V19.1586C70.3823 19.9975 70.671 20.8165 71.2182 21.4707C71.7397 22.0563 72.5095 22.3833 73.3115 22.36C73.832 22.3826 74.3526 22.3163 74.849 22.1644C75.1666 22.0497 75.4565 21.8742 75.7011 21.6486V19.2653H73.1077V17.8069H77.6647V22.2177ZM89.2465 19.0646C89.2955 20.3773 88.7927 21.6544 87.8494 22.6128C86.8994 23.5438 85.579 24.0468 84.217 23.9966C82.8775 24.0423 81.5819 23.5384 80.659 22.6128C79.7346 21.6457 79.2462 20.3714 79.2992 19.0646V16.9534C79.238 15.6454 79.7275 14.3682 80.659 13.4052C81.5729 12.4652 82.8729 11.9531 84.217 12.0037C85.5831 11.9512 86.9068 12.4619 87.8494 13.4052C88.7999 14.3593 89.304 15.6394 89.2465 16.9534V19.0646ZM87.2161 16.9534C87.2603 16.0947 86.9756 15.25 86.4151 14.5761C85.8761 13.9538 85.0634 13.6062 84.217 13.6359C83.3922 13.6091 82.6034 13.9583 82.0934 14.5761C81.5549 15.2592 81.2847 16.1003 81.3296 16.9534V19.0468C81.2941 19.9043 81.5631 20.7481 82.0934 21.4419C82.5975 22.0668 83.3903 22.4178 84.217 22.3821C85.0614 22.4217 85.8759 22.0798 86.4151 21.4596C86.9767 20.7726 87.2609 19.9165 87.2161 19.0468V16.9534ZM100.294 24H98.2821L92.9476 15.3446V23.9816H90.8803V12H92.8922L98.2452 20.6371V12H100.257L100.294 24Z" fill="black"/>
<path fill-rule="evenodd" clip-rule="evenodd" d="M115.14 13.5988H111.456V24H109.411V13.5988H105.727V12H115.122L115.14 13.5988ZM123.106 18.5972H118.448V22.4012H124.011V24H116.408V12H124.011V13.5988H118.392V16.9985H123.106V18.5972ZM134.213 20.0645C134.286 21.1408 133.847 22.1912 133.019 22.9224C132.094 23.6696 130.907 24.0527 129.698 23.9942C128.396 24.044 127.136 23.5484 126.247 22.6366C125.337 21.6564 124.862 20.3747 124.923 19.0642V16.9564C124.854 15.6481 125.323 14.366 126.229 13.384C127.09 12.4638 128.334 11.9595 129.624 12.0086C130.851 11.9378 132.061 12.3071 133.019 13.0446C133.904 13.7671 134.387 14.8438 134.325 15.9561H132.459C132.507 15.2969 132.263 14.6489 131.788 14.1699C131.273 13.7389 130.605 13.5149 129.922 13.5447C129.178 13.5572 128.485 13.909 128.057 14.4914C127.394 15.1607 127.003 16.0352 126.956 16.9564V19.1892C126.926 20.0435 127.188 20.8838 127.702 21.5828C128.169 22.1954 128.925 22.544 129.717 22.5116C130.399 22.556 131.07 22.3373 131.582 21.9043C132.034 21.4128 132.268 20.7721 132.235 20.118L134.213 20.0645ZM145.192 24H143.137V18.8729H137.852V24H135.778V12H137.852V17.2741H143.21V12H145.192V24ZM156.416 24H154.404L149.07 15.3973V23.9817H147.002V12.0731H149.014L154.367 20.5845V12H156.379L156.416 24ZM167.887 19.0348C167.936 20.3415 167.438 21.6128 166.503 22.5668C165.574 23.5065 164.274 24.0262 162.922 23.9972C161.601 24.0422 160.323 23.5403 159.415 22.6197C158.494 21.6589 158.004 20.3908 158.049 19.0878V16.9333C157.996 15.629 158.487 14.3581 159.415 13.4013C160.315 12.4683 161.596 11.9586 162.922 12.0062C164.306 11.9374 165.653 12.4464 166.614 13.4013C167.556 14.351 168.055 15.6252 167.998 16.9333L167.887 19.0348ZM165.875 16.9333C165.914 16.0763 165.625 15.2351 165.063 14.5668C164.535 13.9618 163.746 13.623 162.922 13.6485C162.109 13.6158 161.33 13.9653 160.837 14.5845C160.289 15.2533 160.002 16.0838 160.024 16.9333V19.0171C159.986 19.8739 160.26 20.7168 160.8 21.4012C161.293 22.0204 162.072 22.3699 162.885 22.3372C163.727 22.3766 164.54 22.0368 165.082 21.4189C165.638 20.735 165.92 19.8828 165.875 19.0171V16.9333ZM171.629 22.4012H177.235V24H169.632V12H171.629V22.4012ZM187.912 19.0639C187.96 20.3757 187.462 21.652 186.528 22.6097C185.565 23.5638 184.218 24.0685 182.837 23.9925C181.51 24.0382 180.226 23.5346 179.312 22.6097C178.396 21.6433 177.912 20.3698 177.964 19.0639V16.9542C177.904 15.6471 178.389 14.3708 179.312 13.4085C180.217 12.4691 181.505 11.9573 182.837 12.0079C184.222 11.9292 185.572 12.4417 186.528 13.4085C187.469 14.3618 187.969 15.6411 187.912 16.9542V19.0639ZM185.9 16.9542C185.944 16.0961 185.662 15.2519 185.107 14.5786C184.573 13.9567 183.768 13.6093 182.929 13.6389C182.112 13.6122 181.33 13.9612 180.825 14.5786C180.292 15.2612 180.024 16.1017 180.068 16.9542V19.0462C180.033 19.903 180.3 20.7463 180.825 21.4396C181.324 22.064 182.11 22.4148 182.929 22.3792C183.765 22.4187 184.572 22.0771 185.107 21.4573C185.663 20.7708 185.945 19.9152 185.9 19.0462V16.9542ZM198.778 22.264C198.353 22.7865 197.801 23.2027 197.169 23.4768C196.277 23.8585 195.303 24.0356 194.326 23.9941C193 24.0445 191.712 23.5663 190.771 22.6743C189.826 21.7603 189.318 20.5148 189.368 19.232V16.7707C189.316 15.4977 189.801 14.2579 190.715 13.3285C191.626 12.4382 192.891 11.9584 194.195 12.0087C195.394 11.9381 196.576 12.3011 197.506 13.0253C198.312 13.6942 198.741 14.6847 198.666 15.7006H196.795C196.824 15.1155 196.593 14.546 196.159 14.1311C195.65 13.6914 194.973 13.4719 194.288 13.5247C193.49 13.5006 192.727 13.8379 192.231 14.4343C191.706 15.0881 191.435 15.8947 191.464 16.7172V19.1785C191.427 20.0189 191.713 20.8431 192.268 21.4971C192.796 22.0822 193.573 22.4096 194.382 22.3889C194.885 22.4298 195.391 22.3876 195.879 22.264C196.202 22.1534 196.495 21.9769 196.739 21.7468V19.3034H194.176V17.8408H198.778V22.264ZM204.752 17.8438L207.707 12H210.002L205.731 19.8101V24H203.68V19.6815L199.502 12H201.779L204.752 17.8438Z" fill="#8DC63F"/>
<path fill-rule="evenodd" clip-rule="evenodd" d="M18.1034 0V5.64706L6.03448 16.9412H0L18.1034 0ZM36.2069 31.0588L18.1034 48V42.3529L30.1724 31.0588H36.2069Z" fill="black"/>
<path fill-rule="evenodd" clip-rule="evenodd" d="M6.03448 16.9407L18.1034 28.2348V33.8819L0 16.9407H6.03448ZM18.1034 14.1172L36.2069 31.0584H30.1724L18.1034 19.7642V14.1172Z" fill="#8DC63F"/>
</g>
<defs>
<clipPath id="clip0_613_2">
<rect width="210" height="48" fill="white"/>
</clipPath>
</defs>
</svg>
